<?xml version="1.0" encoding="UTF-8"?>
<svg id="Livello_1" data-name="Livello 1" xmlns="http://www.w3.org/2000/svg" viewBox="0 0 756.39 319.7">
  <defs>
    <style>
      .cls-1 {
        letter-spacing: .44em;
      }

      .cls-2 {
        font-family: SweetSquarePro-Regular, 'SweetSquarePro Regular';
        font-size: 15px;
      }

      .cls-2, .cls-3 {
        fill: #24272a;
      }

      .cls-4 {
        letter-spacing: .47em;
      }

      .cls-3, .cls-5 {
        stroke-width: 0px;
      }

      .cls-5 {
        fill: #f5333f;
      }
    </style>
  </defs>
  <g>
    <path class="cls-5" d="m485.21,37.62L515.75,0l6.45,7.95c.87,1.07.87,2.81,0,3.89l-30.54,37.62-6.45-7.95c-.87-1.07-.87-2.81,0-3.89Z"/>
    <path class="cls-5" d="m527.78,14.85l-30.54,37.62c-.87,1.07-.87,2.81,0,3.89l26.5,32.7,6.45-7.95c.87-1.07.87-2.81,0-3.89l-18.48-22.8,22.51-27.73c.87-1.07.87-2.81,0-3.89l-6.45-7.95Z"/>
    <path class="cls-5" d="m535.78,74.22l18.5-22.79c.87-1.07.87-2.81,0-3.89l-10.46-12.9-6.45,7.95c-.87,1.07-.87,2.81,0,3.89l2.44,3-10.47,12.89c-.87,1.07-.87,2.81,0,3.89l6.45,7.95Z"/>
  </g>
  <g>
    <path class="cls-3" d="m640.65,30.8c0-7.19-.02-14.38.04-21.57,0-.66.4-1.49.89-1.95,2.36-2.19,4.81-4.31,7.27-6.39.38-.32,1-.52,1.51-.52,10.34-.03,20.68-.03,31.02-.04,1,0,1.45.36,1.43,1.44-.06,2.85-.04,5.7-.03,8.55,0,1.59-.14,1.75-1.73,1.75-8.25,0-16.51-.01-24.76-.01-2.87,0-3.99,1.13-3.98,4.01,0,9.83,0,19.66,0,29.49,0,3.01,1.2,4.19,4.23,4.19,7.83,0,15.66,0,23.49,0,2.66,0,2.66.01,2.66-2.71,0-6.51,0-13.02,0-19.53,0-1.83.11-1.93,1.95-1.93,2.72,0,5.45.03,8.17-.02,1.1-.02,1.52.41,1.52,1.5-.01,10.81,0,21.62.02,32.42,0,1.15-.43,1.54-1.6,1.53-14.13-.03-28.25,0-42.38-.05-.65,0-1.43-.29-1.93-.71-2.23-1.84-4.36-3.79-6.57-5.65-.88-.74-1.23-1.56-1.22-2.75.06-7.02.03-14.04.03-21.06,0,0,0,0-.01,0Z"/>
    <path class="cls-3" d="m730,61.04c-5.66,0-11.32.03-16.99-.04-.73,0-1.6-.32-2.16-.78-2.34-1.96-4.58-4.05-6.89-6.07-.76-.67-1.1-1.42-1.06-2.45.07-2.13.08-4.26,0-6.39-.05-1.23.49-1.59,1.58-1.58,2.85.01,5.7.02,8.56,0,1.09,0,1.61.45,1.42,1.55-.31,1.79.39,3.07,1.99,3.83.51.25,1.13.4,1.7.4,7.49.02,14.99,0,22.48,0,2.69,0,4.18-1.46,4.17-4.1,0-1.62,0-3.24,0-4.85-.01-2.45-1.93-4.35-4.39-4.35-8.26,0-16.52-.08-24.78.06-2.5.04-4.47-.46-6.23-2.34-1.65-1.76-3.67-3.17-5.4-4.86-.57-.55-1.03-1.51-1.04-2.29-.08-5.88-.01-11.75-.05-17.63,0-1.16.32-2.01,1.22-2.77,2.05-1.72,4-3.57,6.07-5.26.57-.46,1.44-.76,2.17-.77,11.28-.05,22.56-.06,33.84-.02.73,0,1.6.34,2.16.81,2.35,2.02,4.63,4.13,6.86,6.29.46.44.78,1.24.81,1.88.1,2.17,0,4.34.05,6.51.02.97-.4,1.28-1.29,1.27-2.94-.02-5.87,0-8.81,0-1.01,0-1.45-.37-1.38-1.46.16-2.46-1.38-4.05-3.81-4.05-7.62,0-15.24-.01-22.86,0-1.83,0-3.48,1.63-3.5,3.45-.02,1.79,0,3.58,0,5.37,0,2.44,1.63,4.06,4.13,4.07,2.89.01,5.79,0,8.68,0,6.09-.02,12.17-.06,18.26-.03.58,0,1.27.29,1.71.67,2.71,2.32,5.36,4.72,8.06,7.06.8.69,1.12,1.46,1.11,2.56-.06,5.79-.06,11.58-.02,17.37,0,1.17-.35,2.01-1.23,2.77-1.92,1.68-3.79,3.41-5.64,5.18-.77.73-1.6,1-2.64.99-5.62-.03-11.24-.01-16.86-.02Z"/>
    <g>
      <path class="cls-3" d="m608.88.29c7.06,0,14.13.02,21.19-.02,1.24,0,1.41.65,1.4,1.61-.02,4.72-.04,9.45-.06,14.17,0,.13,0,.26,0,.38.12,4.07.29,3.45-3.41,3.47-1.91.01-3.83-.02-5.74.03-1.03.02-1.47-.38-1.44-1.43.05-1.79,0-3.57.03-5.36.02-.97-.39-1.38-1.37-1.39-8.85-.02-17.7-.07-26.55-.09-1.92,0-3.5,1.64-3.5,3.53,0,1.06,0,3.14,0,5.76,0,1.14,0,7.65,0,13.79,0,4.93,0,9.61,0,11.09,0,2.17,1.46,3.61,3.64,3.61,12.3,0,24.6,0,36.89-.04,1.08,0,1.42.41,1.41,1.43-.04,2.89-.07,5.79,0,8.68.03,1.23-.48,1.52-1.59,1.52-12.94-.02-25.87-.13-38.81.06-3.21.05-5.63-.73-7.74-3.08-1.24-1.38-2.73-2.54-4.16-3.75-.84-.71-1.19-1.51-1.19-2.65.03-14.09,0-28.17.05-42.26,0-.68.35-1.53.83-2,2.29-2.21,4.66-4.35,7.07-6.42.49-.42,1.31-.61,1.98-.61,7.02-.04,14.04-.03,21.06-.03h0Z"/>
      <path class="cls-3" d="m589.21,25.12h17.76c.85,0,1.53.69,1.53,1.53v8.07c0,.85-.69,1.53-1.53,1.53h-17.76v-11.13Z"/>
    </g>
  </g>
  <text class="cls-2" transform="translate(576.39 89.65)"><tspan class="cls-1" x="0" y="0">C</tspan><tspan class="cls-4" x="15.38" y="0">OSTRUZIONI</tspan></text>
  <text/>
</svg>