<?xml version="1.0" encoding="UTF-8"?>
<svg id="Livello_1" data-name="Livello 1" xmlns="http://www.w3.org/2000/svg" viewBox="0 0 736.35 244.43">
  <defs>
    <style>
      .cls-1 {
        font-family: SweetSquarePro-Regular, 'SweetSquarePro Regular';
        font-size: 44.16px;
      }

      .cls-1, .cls-2 {
        fill: #fff;
      }

      .cls-3 {
        fill: #f5333f;
      }

      .cls-3, .cls-2 {
        stroke-width: 0px;
      }

      .cls-4 {
        letter-spacing: .44em;
      }

      .cls-5 {
        letter-spacing: .47em;
      }
    </style>
  </defs>
  <g>
    <path class="cls-3" d="m1.75,100.86L83.63,0l17.28,21.32c2.33,2.88,2.33,7.54,0,10.42L19.03,132.6,1.75,111.28c-2.33-2.88-2.33-7.54,0-10.42Z"/>
    <path class="cls-3" d="m115.89,39.8l-81.88,100.86c-2.34,2.88-2.34,7.54,0,10.42l71.05,87.66,17.3-21.31c2.34-2.88,2.34-7.54,0-10.42l-49.54-61.12,60.35-74.34c2.34-2.88,2.34-7.54,0-10.42l-17.28-21.32Z"/>
    <path class="cls-3" d="m137.35,198.96l49.59-61.08c2.34-2.88,2.34-7.54,0-10.42l-28.04-34.59-17.3,21.31c-2.34,2.88-2.34,7.54,0,10.42l6.53,8.06-28.06,34.57c-2.34,2.88-2.34,7.54,0,10.42l17.28,21.32Z"/>
  </g>
  <g>
    <path class="cls-2" d="m418.47,82.56c0-19.28-.06-38.56.1-57.83.02-1.77,1.06-4.01,2.37-5.22,6.34-5.88,12.89-11.55,19.49-17.14,1.02-.87,2.68-1.39,4.05-1.39,27.72-.09,55.44-.07,83.16-.11,2.67,0,3.89.97,3.82,3.87-.17,7.64-.1,15.28-.07,22.93.01,4.25-.38,4.7-4.64,4.7-22.13-.01-44.26-.03-66.39-.04-7.7,0-10.68,3.03-10.68,10.75,0,26.35,0,52.7,0,79.05,0,8.07,3.22,11.24,11.35,11.24,20.99,0,41.98-.01,62.97,0,7.13,0,7.13.04,7.12-7.27-.01-17.45-.02-34.91-.02-52.36,0-4.92.3-5.19,5.23-5.18,7.3.01,14.6.08,21.9-.06,2.96-.05,4.08,1.11,4.08,4.02-.03,28.97-.02,57.95.05,86.92,0,3.09-1.15,4.12-4.28,4.11-37.87-.08-75.74-.02-113.61-.12-1.75,0-3.82-.78-5.18-1.9-5.98-4.92-11.69-10.16-17.61-15.16-2.36-1.99-3.29-4.19-3.26-7.37.16-18.82.08-37.64.08-56.46-.01,0-.02,0-.03,0Z"/>
    <path class="cls-2" d="m658.01,163.63c-15.18,0-30.36.07-45.54-.1-1.96-.02-4.3-.85-5.8-2.1-6.29-5.26-12.29-10.86-18.46-16.27-2.04-1.79-2.94-3.8-2.85-6.58.19-5.7.22-11.42-.02-17.12-.14-3.3,1.32-4.25,4.24-4.24,7.65.04,15.29.05,22.94,0,2.93-.02,4.33,1.19,3.81,4.16-.84,4.8,1.04,8.23,5.32,10.28,1.38.66,3.03,1.07,4.55,1.07,20.09.06,40.17.01,60.26,0,7.21,0,11.2-3.91,11.19-10.98,0-4.34.02-8.68,0-13.01-.04-6.57-5.16-11.67-11.78-11.67-22.14,0-44.29-.22-66.42.16-6.71.12-11.99-1.24-16.71-6.26-4.43-4.72-9.84-8.49-14.48-13.03-1.52-1.48-2.75-4.04-2.78-6.13-.22-15.75-.04-31.51-.14-47.26-.02-3.11.86-5.39,3.27-7.42,5.5-4.61,10.71-9.57,16.28-14.1,1.52-1.24,3.85-2.05,5.82-2.06,30.24-.14,60.49-.16,90.73-.04,1.95,0,4.3.9,5.78,2.18,6.3,5.43,12.42,11.07,18.4,16.85,1.23,1.19,2.09,3.31,2.17,5.05.26,5.81,0,11.64.14,17.46.06,2.6-1.06,3.43-3.46,3.42-7.87-.04-15.75-.03-23.62.02-2.7.01-3.89-.98-3.7-3.92.42-6.58-3.69-10.85-10.2-10.86-20.43-.02-40.85-.03-61.28-.02-4.9,0-9.33,4.38-9.38,9.24-.04,4.79,0,9.59,0,14.38,0,6.53,4.37,10.88,11.06,10.91,7.76.03,15.52,0,23.28-.02,16.32-.05,32.64-.16,48.96-.08,1.55,0,3.4.78,4.59,1.8,7.28,6.22,14.38,12.64,21.6,18.92,2.13,1.86,3,3.92,2.97,6.85-.17,15.52-.17,31.05-.05,46.58.02,3.14-.94,5.38-3.29,7.43-5.16,4.49-10.17,9.15-15.11,13.89-2.05,1.97-4.29,2.68-7.08,2.66-15.06-.08-30.13-.04-45.19-.04Z"/>
    <g>
      <path class="cls-2" d="m333.31.79c18.94,0,37.87.06,56.81-.06,3.32-.02,3.78,1.74,3.77,4.3-.06,12.66-.12,25.32-.17,37.98,0,.34-.01.68,0,1.03.32,10.91.76,9.25-9.15,9.32-5.13.03-10.27-.05-15.4.07-2.77.07-3.93-1.01-3.86-3.82.13-4.79-.01-9.58.08-14.37.05-2.61-1.05-3.71-3.67-3.71-23.73-.06-47.45-.2-71.18-.23-5.14,0-9.38,4.39-9.38,9.45,0,2.84,0,8.42,0,15.44,0,3.05,0,20.51,0,36.97,0,13.21,0,25.77,0,29.72,0,5.81,3.92,9.69,9.77,9.68,32.97-.01,65.94-.02,98.9-.11,2.9,0,3.81,1.1,3.77,3.85-.11,7.76-.19,15.52,0,23.27.08,3.3-1.3,4.08-4.27,4.07-34.68-.06-69.36-.35-104.04.16-8.59.13-15.09-1.96-20.75-8.26-3.33-3.71-7.33-6.82-11.15-10.06-2.25-1.91-3.2-4.05-3.19-7.1.09-37.76.02-75.52.14-113.28,0-1.82.93-4.11,2.23-5.36,6.15-5.93,12.49-11.66,18.97-17.22,1.3-1.12,3.51-1.64,5.3-1.65,18.82-.12,37.65-.07,56.47-.07v-.02Z"/>
      <path class="cls-2" d="m280.56,67.35h47.62c2.27,0,4.11,1.84,4.11,4.11v21.63c0,2.27-1.84,4.11-4.11,4.11h-47.62v-29.85Z"/>
    </g>
  </g>
  <text class="cls-1" transform="translate(253.8 233.39)"><tspan class="cls-4" x="0" y="0">C</tspan><tspan class="cls-5" x="45.26" y="0">OSTRUZIONI</tspan></text>
</svg>